<mxfile host="app.diagrams.net" modified="2022-10-20T02:45:12.171Z" agent="5.0 (Windows NT 10.0; Win64; x64) AppleWebKit/537.36 (KHTML, like Gecko) Chrome/106.0.0.0 Safari/537.36" etag="dDXNUl4FRPesnj5Tct1_" version="20.4.2" type="github">
  <diagram id="82kd5PlZFJquaqxWWlsF" name="페이지-1">
    <mxGraphModel dx="1422" dy="786" grid="1" gridSize="10" guides="1" tooltips="1" connect="1" arrows="1" fold="1" page="1" pageScale="1" pageWidth="700" pageHeight="800" math="0" shadow="0">
      <root>
        <mxCell id="0" />
        <mxCell id="1" parent="0" />
        <mxCell id="J3UUGQHg230ujq2XqdDO-4" value="" style="edgeStyle=orthogonalEdgeStyle;rounded=0;orthogonalLoop=1;jettySize=auto;html=1;entryX=0.5;entryY=0;entryDx=0;entryDy=0;" edge="1" parent="1" source="J3UUGQHg230ujq2XqdDO-1" target="J3UUGQHg230ujq2XqdDO-24">
          <mxGeometry relative="1" as="geometry">
            <mxPoint x="120" y="130" as="targetPoint" />
          </mxGeometry>
        </mxCell>
        <mxCell id="J3UUGQHg230ujq2XqdDO-6" value="" style="edgeStyle=orthogonalEdgeStyle;rounded=0;orthogonalLoop=1;jettySize=auto;html=1;entryX=0.5;entryY=0;entryDx=0;entryDy=0;" edge="1" parent="1" source="J3UUGQHg230ujq2XqdDO-1" target="J3UUGQHg230ujq2XqdDO-9">
          <mxGeometry relative="1" as="geometry">
            <mxPoint x="570" y="130" as="targetPoint" />
          </mxGeometry>
        </mxCell>
        <mxCell id="J3UUGQHg230ujq2XqdDO-1" value="입력 이벤트 감지" style="rounded=0;whiteSpace=wrap;html=1;" vertex="1" parent="1">
          <mxGeometry x="300" y="50" width="120" height="60" as="geometry" />
        </mxCell>
        <mxCell id="J3UUGQHg230ujq2XqdDO-9" value="마우스 입력" style="swimlane;fontStyle=0;childLayout=stackLayout;horizontal=1;startSize=30;horizontalStack=0;resizeParent=1;resizeParentMax=0;resizeLast=0;collapsible=1;marginBottom=0;" vertex="1" parent="1">
          <mxGeometry x="500" y="130" width="140" height="90" as="geometry" />
        </mxCell>
        <mxCell id="J3UUGQHg230ujq2XqdDO-10" value="마우스 이동" style="text;strokeColor=none;fillColor=none;align=left;verticalAlign=middle;spacingLeft=4;spacingRight=4;overflow=hidden;points=[[0,0.5],[1,0.5]];portConstraint=eastwest;rotatable=0;" vertex="1" parent="J3UUGQHg230ujq2XqdDO-9">
          <mxGeometry y="30" width="140" height="30" as="geometry" />
        </mxCell>
        <mxCell id="J3UUGQHg230ujq2XqdDO-11" value="좌클릭" style="text;strokeColor=none;fillColor=none;align=left;verticalAlign=middle;spacingLeft=4;spacingRight=4;overflow=hidden;points=[[0,0.5],[1,0.5]];portConstraint=eastwest;rotatable=0;" vertex="1" parent="J3UUGQHg230ujq2XqdDO-9">
          <mxGeometry y="60" width="140" height="30" as="geometry" />
        </mxCell>
        <mxCell id="J3UUGQHg230ujq2XqdDO-18" value="카메라 회전" style="rounded=0;whiteSpace=wrap;html=1;" vertex="1" parent="1">
          <mxGeometry x="210" y="145" width="120" height="60" as="geometry" />
        </mxCell>
        <mxCell id="J3UUGQHg230ujq2XqdDO-19" style="edgeStyle=orthogonalEdgeStyle;rounded=0;orthogonalLoop=1;jettySize=auto;html=1;exitX=0;exitY=0.5;exitDx=0;exitDy=0;entryX=1;entryY=0.5;entryDx=0;entryDy=0;" edge="1" parent="1" source="J3UUGQHg230ujq2XqdDO-10" target="J3UUGQHg230ujq2XqdDO-18">
          <mxGeometry relative="1" as="geometry" />
        </mxCell>
        <mxCell id="J3UUGQHg230ujq2XqdDO-20" value="근접 공격" style="rounded=0;whiteSpace=wrap;html=1;" vertex="1" parent="1">
          <mxGeometry x="210" y="220" width="120" height="60" as="geometry" />
        </mxCell>
        <mxCell id="J3UUGQHg230ujq2XqdDO-21" value="원거리 공격" style="rounded=0;whiteSpace=wrap;html=1;" vertex="1" parent="1">
          <mxGeometry x="210" y="300" width="120" height="60" as="geometry" />
        </mxCell>
        <mxCell id="J3UUGQHg230ujq2XqdDO-24" value="키보드 입력" style="swimlane;fontStyle=0;childLayout=stackLayout;horizontal=1;startSize=30;horizontalStack=0;resizeParent=1;resizeParentMax=0;resizeLast=0;collapsible=1;marginBottom=0;" vertex="1" parent="1">
          <mxGeometry x="50" y="390" width="140" height="120" as="geometry" />
        </mxCell>
        <mxCell id="J3UUGQHg230ujq2XqdDO-29" value="방향키" style="text;strokeColor=none;fillColor=none;align=left;verticalAlign=middle;spacingLeft=4;spacingRight=4;overflow=hidden;points=[[0,0.5],[1,0.5]];portConstraint=eastwest;rotatable=0;" vertex="1" parent="J3UUGQHg230ujq2XqdDO-24">
          <mxGeometry y="30" width="140" height="30" as="geometry" />
        </mxCell>
        <mxCell id="J3UUGQHg230ujq2XqdDO-31" value="ESC" style="text;strokeColor=none;fillColor=none;align=left;verticalAlign=middle;spacingLeft=4;spacingRight=4;overflow=hidden;points=[[0,0.5],[1,0.5]];portConstraint=eastwest;rotatable=0;" vertex="1" parent="J3UUGQHg230ujq2XqdDO-24">
          <mxGeometry y="60" width="140" height="30" as="geometry" />
        </mxCell>
        <mxCell id="J3UUGQHg230ujq2XqdDO-32" value="스페이스" style="text;strokeColor=none;fillColor=none;align=left;verticalAlign=middle;spacingLeft=4;spacingRight=4;overflow=hidden;points=[[0,0.5],[1,0.5]];portConstraint=eastwest;rotatable=0;" vertex="1" parent="J3UUGQHg230ujq2XqdDO-24">
          <mxGeometry y="90" width="140" height="30" as="geometry" />
        </mxCell>
        <mxCell id="J3UUGQHg230ujq2XqdDO-30" value="캐릭터 이동" style="rounded=0;whiteSpace=wrap;html=1;" vertex="1" parent="1">
          <mxGeometry x="380" y="405" width="120" height="60" as="geometry" />
        </mxCell>
        <mxCell id="J3UUGQHg230ujq2XqdDO-34" style="edgeStyle=orthogonalEdgeStyle;rounded=0;orthogonalLoop=1;jettySize=auto;html=1;exitX=1;exitY=0.5;exitDx=0;exitDy=0;entryX=0;entryY=0.5;entryDx=0;entryDy=0;" edge="1" parent="1" source="J3UUGQHg230ujq2XqdDO-29" target="J3UUGQHg230ujq2XqdDO-30">
          <mxGeometry relative="1" as="geometry" />
        </mxCell>
        <mxCell id="J3UUGQHg230ujq2XqdDO-35" value="옵션 창&lt;br&gt;열기/닫기" style="rounded=0;whiteSpace=wrap;html=1;" vertex="1" parent="1">
          <mxGeometry x="380" y="480" width="120" height="60" as="geometry" />
        </mxCell>
        <mxCell id="J3UUGQHg230ujq2XqdDO-36" style="edgeStyle=orthogonalEdgeStyle;rounded=0;orthogonalLoop=1;jettySize=auto;html=1;exitX=1;exitY=0.5;exitDx=0;exitDy=0;entryX=0;entryY=0.5;entryDx=0;entryDy=0;" edge="1" parent="1" source="J3UUGQHg230ujq2XqdDO-31" target="J3UUGQHg230ujq2XqdDO-35">
          <mxGeometry relative="1" as="geometry" />
        </mxCell>
        <mxCell id="J3UUGQHg230ujq2XqdDO-37" value="점프" style="rounded=0;whiteSpace=wrap;html=1;" vertex="1" parent="1">
          <mxGeometry x="380" y="560" width="120" height="60" as="geometry" />
        </mxCell>
        <mxCell id="J3UUGQHg230ujq2XqdDO-40" value="No" style="edgeStyle=orthogonalEdgeStyle;rounded=0;orthogonalLoop=1;jettySize=auto;html=1;exitX=0.5;exitY=0;exitDx=0;exitDy=0;entryX=1;entryY=0.5;entryDx=0;entryDy=0;" edge="1" parent="1" source="J3UUGQHg230ujq2XqdDO-38" target="J3UUGQHg230ujq2XqdDO-20">
          <mxGeometry relative="1" as="geometry">
            <Array as="points">
              <mxPoint x="415" y="250" />
            </Array>
          </mxGeometry>
        </mxCell>
        <mxCell id="J3UUGQHg230ujq2XqdDO-41" style="edgeStyle=orthogonalEdgeStyle;rounded=0;orthogonalLoop=1;jettySize=auto;html=1;entryX=1;entryY=0.5;entryDx=0;entryDy=0;exitX=0.5;exitY=1;exitDx=0;exitDy=0;" edge="1" parent="1" source="J3UUGQHg230ujq2XqdDO-38" target="J3UUGQHg230ujq2XqdDO-21">
          <mxGeometry relative="1" as="geometry">
            <Array as="points">
              <mxPoint x="415" y="330" />
            </Array>
          </mxGeometry>
        </mxCell>
        <mxCell id="J3UUGQHg230ujq2XqdDO-42" value="Yes" style="edgeLabel;html=1;align=center;verticalAlign=middle;resizable=0;points=[];" vertex="1" connectable="0" parent="J3UUGQHg230ujq2XqdDO-41">
          <mxGeometry x="-0.3474" y="1" relative="1" as="geometry">
            <mxPoint x="-24" y="-1" as="offset" />
          </mxGeometry>
        </mxCell>
        <mxCell id="J3UUGQHg230ujq2XqdDO-38" value="0.7초 이상&lt;br&gt;눌렀는가?" style="rhombus;whiteSpace=wrap;html=1;" vertex="1" parent="1">
          <mxGeometry x="370" y="260" width="90" height="60" as="geometry" />
        </mxCell>
        <mxCell id="J3UUGQHg230ujq2XqdDO-39" style="edgeStyle=orthogonalEdgeStyle;rounded=0;orthogonalLoop=1;jettySize=auto;html=1;exitX=0;exitY=0.5;exitDx=0;exitDy=0;entryX=1;entryY=0.5;entryDx=0;entryDy=0;" edge="1" parent="1" source="J3UUGQHg230ujq2XqdDO-11" target="J3UUGQHg230ujq2XqdDO-38">
          <mxGeometry relative="1" as="geometry" />
        </mxCell>
        <mxCell id="J3UUGQHg230ujq2XqdDO-46" value="No" style="edgeStyle=orthogonalEdgeStyle;rounded=0;orthogonalLoop=1;jettySize=auto;html=1;exitX=0.5;exitY=0;exitDx=0;exitDy=0;entryX=0;entryY=0.5;entryDx=0;entryDy=0;" edge="1" parent="1" source="J3UUGQHg230ujq2XqdDO-43" target="J3UUGQHg230ujq2XqdDO-37">
          <mxGeometry relative="1" as="geometry">
            <Array as="points">
              <mxPoint x="300" y="590" />
            </Array>
          </mxGeometry>
        </mxCell>
        <mxCell id="J3UUGQHg230ujq2XqdDO-47" value="Yes" style="edgeStyle=orthogonalEdgeStyle;rounded=0;orthogonalLoop=1;jettySize=auto;html=1;exitX=0.5;exitY=1;exitDx=0;exitDy=0;entryX=0;entryY=0.5;entryDx=0;entryDy=0;" edge="1" parent="1" source="J3UUGQHg230ujq2XqdDO-43" target="J3UUGQHg230ujq2XqdDO-44">
          <mxGeometry relative="1" as="geometry">
            <Array as="points">
              <mxPoint x="300" y="670" />
            </Array>
          </mxGeometry>
        </mxCell>
        <mxCell id="J3UUGQHg230ujq2XqdDO-43" value="이미 점프를&lt;br&gt;했는가?" style="rhombus;whiteSpace=wrap;html=1;" vertex="1" parent="1">
          <mxGeometry x="240" y="600" width="120" height="60" as="geometry" />
        </mxCell>
        <mxCell id="J3UUGQHg230ujq2XqdDO-44" value="글라이딩" style="rounded=0;whiteSpace=wrap;html=1;" vertex="1" parent="1">
          <mxGeometry x="380" y="640" width="120" height="60" as="geometry" />
        </mxCell>
        <mxCell id="J3UUGQHg230ujq2XqdDO-45" style="edgeStyle=orthogonalEdgeStyle;rounded=0;orthogonalLoop=1;jettySize=auto;html=1;exitX=1;exitY=0.5;exitDx=0;exitDy=0;entryX=0;entryY=0.5;entryDx=0;entryDy=0;" edge="1" parent="1" source="J3UUGQHg230ujq2XqdDO-32" target="J3UUGQHg230ujq2XqdDO-43">
          <mxGeometry relative="1" as="geometry" />
        </mxCell>
      </root>
    </mxGraphModel>
  </diagram>
</mxfile>
